<svg xmlns="http://www.w3.org/2000/svg" viewBox="-293 385 24 24" width="24" height="24" ><style>.bfst0{opacity:.4;enable-background:new}</style><g class="bfst0"><path d="M-284.6 396.2l1.4 4.2h4.4l1.4-4.2-3.6-2.6z"/><path d="M-281 386.8c-5.7 0-10.3 4.6-10.3 10.3 0 5.7 4.6 10.3 10.3 10.3s10.3-4.6 10.3-10.3c0-5.8-4.6-10.3-10.3-10.3zm7.7 13.5c-.3.6-.6 1.2-1 1.7l-.1-.9-3.1.7-1.7 2.8.8.4c-.9.3-1.8.4-2.7.4-.9 0-1.8-.1-2.7-.4l.8-.4-1.7-2.8-3.1-.7-.1.9c-.4-.5-.7-1.1-1-1.7-.4-1-.7-2.1-.7-3.3v-.1l.6.6 2.1-2.4-.3-3.2-.8.2c.3-.3.5-.7.8-1 .8-.8 1.7-1.4 2.7-1.8.2-.1.5-.2.7-.3l-.4.7 3 1.3 3-1.3-.4-.7c.2.1.5.2.7.3 1 .4 1.9 1 2.7 1.8.3.3.6.6.8 1l-.8-.2-.3 3.2 2.1 2.4.6-.6c.2 1.2-.1 2.3-.5 3.4z"/></g></svg>