<svg xmlns="http://www.w3.org/2000/svg" width="24" height="24"><path opacity=".4" d="M3.1 15.075c0 1.948 1.53 3.48 3.48 3.48.695 0 1.39-.28 1.947-.558v.278c0 1.948 1.53 3.48 3.48 3.48 1.947 0 3.478-1.532 3.478-3.48v-.278c.557.418 1.253.557 1.948.557 1.948 0 3.48-1.53 3.48-3.48 0-1.39-.836-2.504-1.95-3.06 1.114-.558 1.95-1.81 1.95-3.063 0-1.946-1.532-3.476-3.48-3.476-.696 0-1.39.278-1.948.557v-.28c0-1.946-1.53-3.477-3.48-3.477-1.947 0-3.478 1.53-3.478 3.48v.277c-.557-.42-1.252-.7-1.947-.7-1.95 0-3.48 1.53-3.48 3.48 0 1.39.834 2.504 1.947 3.06-1.113.697-1.948 1.95-1.948 3.202zm8.907-6.54c1.948 0 3.48 1.53 3.48 3.478 0 1.948-1.532 3.48-3.48 3.48s-3.48-1.532-3.48-3.48 1.53-3.48 3.48-3.48z"/></svg>