<svg xmlns="http://www.w3.org/2000/svg" width="24" height="24"><path opacity=".4" d="M23 5.816C23 4.813 22.187 4 21.184 4H1.816C.813 4 0 4.813 0 5.816v12.368C0 19.187.813 20 1.816 20h19.368C22.187 20 23 19.187 23 18.184V5.816zM5 8h1v5H5V8zm1.41 7.023c-.05.122-.12.228-.21.318s-.195.16-.317.21c-.122.05-.25.08-.388.08s-.266-.026-.388-.077c-.122-.05-.228-.12-.318-.21s-.16-.195-.21-.317c-.05-.123-.08-.252-.08-.388 0-.137.026-.266.077-.388.05-.124.12-.23.21-.32s.195-.16.317-.21.252-.076.388-.076.266.025.388.076c.123.05.23.12.32.21s.16.195.21.317c.05.122.076.25.076.388 0 .136-.026.265-.076.388zm5.605-.085c-.05.122-.12.228-.21.318s-.197.16-.32.21c-.12.05-.25.076-.387.076s-.266-.025-.388-.076c-.122-.05-.228-.12-.318-.21s-.16-.196-.21-.318c-.05-.122-.076-.252-.076-.388 0-.137.025-.266.076-.388.05-.123.12-.228.21-.318s.196-.16.318-.21c.122-.05.252-.076.388-.076.137 0 .266.025.388.076.122.05.23.12.318.21.09.09.16.196.21.318.05.122.076.25.076.388 0 .136-.025.265-.075.388zm1.585-4.6c-.043.168-.117.336-.22.5-.105.167-.242.334-.41.503-.17.17-.384.357-.643.558-.166.13-.23.255-.288.377-.06.123-.04.245-.04.367V13h-2v-.522c0-.216.17-.4.23-.55.056-.15.226-.29.362-.42.2-.194.422-.363.59-.507.17-.14.334-.276.456-.402s.225-.244.294-.356c.068-.11.107-.227.107-.35 0-.237-.07-.422-.22-.555-.146-.133-.33-.2-.553-.2-.34 0-.596.094-.772.28-.176.188-.26.4-.282.667l-1.674.02c.106-.86.36-1.456.84-1.855.482-.4 1.1-.6 1.855-.6.33 0 .642.045.933.135.29.09.55.225.77.404.224.18.4.402.53.67.13.264.194.57.194.915 0 .208-.02.397-.065.565zM20 11h-.577l-.183 1H20v1h-.89l-.302 2h-1.046l.302-2h-1.29l-.302 2h-1.046l.302-2H15v-1h.857l.183-1H15v-1h1.17l.3-2h1.047l-.302 2h1.29l.302-2h1.046l-.302 2H20v1zm-3.097 1.338h1.29l.183-1.36h-1.29l-.183 1.36z"/></svg>