<svg xmlns="http://www.w3.org/2000/svg" viewBox="-293 385 24 24" width="24" height="24"><style>.bost0{opacity:.4;enable-background:new}</style><path class="bost0" d="M-273.9 390c-.2-.6-.8-1-1.4-1h-11.3c-.7 0-1.2.4-1.4 1l-2.2 6.2v8.2c0 .6.4 1 1 1h1c.6 0 1-.4 1-1v-1h12.4v1c0 .6.4 1 1 1h1c.6 0 1-.4 1-1v-8.2l-2.1-6.2zm-12.8 10.3c-.8 0-1.5-.7-1.5-1.5s.7-1.5 1.5-1.5 1.5.7 1.5 1.5c.1.8-.6 1.5-1.5 1.5zm11.4 0c-.8 0-1.5-.7-1.5-1.5s.7-1.5 1.5-1.5 1.5.7 1.5 1.5-.7 1.5-1.5 1.5zm-12.9-5.1l1.5-4.6h11.3l1.5 4.6h-14.3z"/></svg>